<svg width="405" height="86" viewBox="0 0 405 86" fill="none" xmlns="http://www.w3.org/2000/svg">
<g id="main">
<path id="Think.Flow" d="M105.304 31.88H95.64V24.2H123.672V31.88H114.008V69H105.304V31.88ZM146.457 36.296H152.537C154.414 38.6853 155.694 41.0747 156.377 43.464C157.059 45.8533 157.401 48.84 157.401 52.424V69H148.889V51.784C148.889 47.7307 148.334 44.808 147.225 43.016H140.057V69H131.544V24.2H140.057V38.6C140.995 37.7467 141.87 37.1493 142.681 36.808C143.534 36.4667 144.793 36.296 146.457 36.296ZM167.149 69V36.296H175.597V69H167.149ZM167.149 24.2H175.597V32.84H167.149V24.2ZM199.775 36.296H206.559C208.436 38.6853 209.716 41.0747 210.399 43.464C211.082 45.8533 211.423 48.84 211.423 52.424V69H202.911V51.784C202.911 47.7307 202.356 44.808 201.247 43.016H194.079V69H185.567V36.296H192.223L193.375 38.6C194.314 37.7467 195.188 37.1493 195.999 36.808C196.852 36.4667 198.111 36.296 199.775 36.296ZM221.172 69V24.2H229.684V47.944H230.58L236.596 36.296H244.916L237.364 50.568L244.98 69H236.532L230.644 54.664H229.684V69H221.172ZM252.71 59.528H261.926V69H252.71V59.528ZM272.015 69V24.2H295.375V31.88H280.783V43.08H293.455V50.504H280.783V69H272.015ZM311.685 24.2V69H303.237V24.2H311.685ZM341.11 69H327.158C322.892 65.032 320.758 59.6133 320.758 52.744C320.758 49.288 321.228 46.28 322.166 43.72C323.148 41.16 324.684 38.6853 326.774 36.296H341.75C343.969 38.856 345.484 41.352 346.294 43.784C347.105 46.1733 347.51 49.16 347.51 52.744C347.51 59.6133 345.377 65.032 341.11 69ZM331.702 62.28H336.566C338.102 59.2933 338.87 55.9013 338.87 52.104C338.87 48.3067 338.081 45.2773 336.502 43.016H331.702C330.166 45.192 329.398 48.2853 329.398 52.296C329.398 56.264 330.166 59.592 331.702 62.28ZM371.172 36.296H379.62V62.28H384.1C385.508 60.0187 386.212 56.904 386.212 52.936V36.296H394.724V53.32C394.724 60.5307 392.718 65.7573 388.708 69H383.396C380.11 69 377.401 68.0187 375.268 66.056C373.134 68.0187 370.51 69 367.396 69H362.084C358.073 66.184 356.068 60.9573 356.068 53.32V36.296H364.58V53.32C364.58 57.1173 365.262 60.104 366.628 62.28H371.172V36.296Z" fill="#2262A5"/>
<circle id="Ellipse 1" cx="41.5" cy="41.5" r="39" transform="matrix(-1 0 0 1 83 3)" stroke="#2262A5" stroke-width="5"/>
<g id="logo">
<path id="T" d="M29.24 70V31.856H14.904V25.2H50.872V31.856H36.152V70H29.24Z" fill="#2262A5"/>
<path id="F" d="M36.0518 70V25.2H42.9638V70H36.0518ZM38.8038 51.184V44.528H65.2998V51.184H38.8038ZM39.1238 31.856V25.2H68.1798V31.856H39.1238Z" fill="#2262A5"/>
</g>
</g>
</svg>
