<svg width="300" height="45" viewBox="0 0 300 45" fill="none" xmlns="http://www.w3.org/2000/svg">
<path id="Think.Flow" d="M10.304 7.88H0.64V0.199997H28.672V7.88H19.008V45H10.304V7.88ZM51.4565 12.296H57.5365C59.4138 14.6853 60.6938 17.0747 61.3765 19.464C62.0592 21.8533 62.4005 24.84 62.4005 28.424V45H53.8885V27.784C53.8885 23.7307 53.3338 20.808 52.2245 19.016H45.0565V45H36.5445V0.199997H45.0565V14.6C45.9952 13.7467 46.8698 13.1493 47.6805 12.808C48.5338 12.4667 49.7925 12.296 51.4565 12.296ZM72.1495 45V12.296H80.5975V45H72.1495ZM72.1495 0.199997H80.5975V8.84H72.1495V0.199997ZM104.775 12.296H111.559C113.436 14.6853 114.716 17.0747 115.399 19.464C116.082 21.8533 116.423 24.84 116.423 28.424V45H107.911V27.784C107.911 23.7307 107.356 20.808 106.247 19.016H99.079V45H90.567V12.296H97.223L98.375 14.6C99.3137 13.7467 100.188 13.1493 100.999 12.808C101.852 12.4667 103.111 12.296 104.775 12.296ZM126.172 45V0.199997H134.684V23.944H135.58L141.596 12.296H149.916L142.364 26.568L149.98 45H141.532L135.644 30.664H134.684V45H126.172ZM157.71 35.528H166.926V45H157.71V35.528ZM177.015 45V0.199997H200.375V7.88H185.783V19.08H198.455V26.504H185.783V45H177.015ZM216.685 0.199997V45H208.237V0.199997H216.685ZM246.11 45H232.158C227.892 41.032 225.758 35.6133 225.758 28.744C225.758 25.288 226.228 22.28 227.166 19.72C228.148 17.16 229.684 14.6853 231.774 12.296H246.75C248.969 14.856 250.484 17.352 251.294 19.784C252.105 22.1733 252.51 25.16 252.51 28.744C252.51 35.6133 250.377 41.032 246.11 45ZM236.702 38.28H241.566C243.102 35.2933 243.87 31.9013 243.87 28.104C243.87 24.3067 243.081 21.2773 241.502 19.016H236.702C235.166 21.192 234.398 24.2853 234.398 28.296C234.398 32.264 235.166 35.592 236.702 38.28ZM276.172 12.296H284.62V38.28H289.1C290.508 36.0187 291.212 32.904 291.212 28.936V12.296H299.724V29.32C299.724 36.5307 297.718 41.7573 293.708 45H288.396C285.11 45 282.401 44.0187 280.268 42.056C278.134 44.0187 275.51 45 272.396 45H267.084C263.073 42.184 261.068 36.9573 261.068 29.32V12.296H269.58V29.32C269.58 33.1173 270.262 36.104 271.628 38.28H276.172V12.296Z" fill="#2262A5"/>
</svg>
